<svg xmlns="http://www.w3.org/2000/svg" viewBox="0 0 200 35.54" width="200" height="35.54"><path fill="#ffffff" d="M185.45 6.37c-8.04 0-14.55 6.52-14.55 14.55s6.52 14.55 14.55 14.55S200 28.95 200 20.92s-6.52-14.55-14.55-14.55Zm0 23.51c-4.95 0-8.96-4.01-8.96-8.96s4.01-8.96 8.96-8.96 8.96 4.01 8.96 8.96-4.01 8.96-8.96 8.96ZM14.55 11.96c2.11 0 4.05.73 5.58 1.95l3.29-4.53a14.504 14.504 0 0 0-8.87-3.02C6.52 6.37 0 12.88 0 20.92s6.52 14.55 14.55 14.55c3.34 0 6.41-1.12 8.87-3.02l-3.29-4.53a8.92 8.92 0 0 1-5.58 1.95c-4.95 0-8.96-4.01-8.96-8.96s4.01-8.96 8.96-8.96ZM39.59 6.37c-9.5 0-16.88 9.11-13.87 19.07a14.05 14.05 0 0 0 9.55 9.41c5.01 1.45 9.78.28 13.28-2.45 0 1.7 1.38 3.08 3.08 3.08h2.53V20.93c0-8.04-6.52-14.55-14.55-14.55Zm8.95 14.55v.41c-.22 4.76-4.14 8.55-8.95 8.55-5.14 0-9.27-4.32-8.94-9.53.28-4.46 3.91-8.09 8.37-8.37 5.21-.32 9.53 3.8 9.53 8.94h-.01ZM118.63 6.37c-9.5 0-16.88 9.11-13.87 19.07a14.05 14.05 0 0 0 9.55 9.41c5.01 1.45 9.78.28 13.28-2.45 0 1.7 1.38 3.08 3.08 3.08h2.53V20.93c0-8.04-6.52-14.55-14.55-14.55Zm8.95 14.55v.41c-.22 4.76-4.14 8.55-8.95 8.55-5.14 0-9.27-4.32-8.94-9.53.28-4.46 3.91-8.09 8.37-8.37 5.21-.32 9.53 3.8 9.53 8.94h-.01Z"/><path fill="#ffffff" d="M93.53 26.36V11.77h5.9l5.58-5.6H93.53V0h-5.6v26.41c0 4.9 3.97 8.87 8.87 8.87h5.68v-5.6h-5.63c-1.83 0-3.32-1.49-3.32-3.32ZM68.78 21.59a2.817 2.817 0 0 0 4.84 1.96l6.57-6.57 4.11-4.11c-.62-.93-1.34-1.79-2.15-2.56a13.93 13.93 0 0 0-1.8-1.45c-.95-.66-1.99-1.2-3.09-1.62a14.55 14.55 0 0 0-5.17-.94c-5.07 0-9.54 2.58-12.16 6.5a14.596 14.596 0 0 0-2.3 5.93c-.11.71-.16 1.45-.16 2.19 0 1.77-.16 3.89 2.04 7.68.87 1.5 1.94 2.52 1.98 2.55.77.81 1.63 1.36 2.56 1.98 1.82 1.21 3.94 2.01 6.21 2.3.6.08 1.21.11 1.84.11 2.61 0 5.35-.68 7.54-1.88.57-.31.93-.61 1.49-1.06 1.23-.9 2.3-1.97 3.18-3.18l-4.53-3.73c-.49.69-1.06 1.36-1.71 1.95-.18.17-.37.33-.58.49l-.12.09a8.7 8.7 0 0 1-1.24.75c-.25.13-.51.23-.77.33-.11.04-.22.09-.34.12-.91.31-1.89.49-2.91.49-1.41 0-2.75-.32-3.93-.9a9.072 9.072 0 0 1-2.7-2.01c-.53-.57-.98-1.21-1.34-1.91a8.82 8.82 0 0 1-1.01-3.69c0-.16-.01-.32-.01-.49 0-1.44.34-2.81.95-4.02a9.003 9.003 0 0 1 8.06-4.99 8.972 8.972 0 0 1 4.18 1.02l-6.59 6.59c-.55.52-.91 1.25-.91 2.06ZM167.19 20.92v14.55h-2.56c-1.67 0-3.03-1.36-3.03-3.03V20.92c0-4.95-4.01-8.96-8.96-8.96s-8.96 4.01-8.96 8.96V35.48h-5.59V21.17c0-7.98 6.32-14.66 14.3-14.79 8.15-.14 14.8 6.43 14.8 14.55"/></svg>
