<svg width="211" height="29" viewBox="0 0 211 29" fill="none" xmlns="http://www.w3.org/2000/svg">
<path d="M62.5087 7.76587L65.0401 8.05177C66.1768 8.17776 66.3009 9.10815 66.3009 9.69934V12.6213H54.6363V9.69934C54.6363 9.10815 54.7604 8.17776 55.8921 8.05177L58.4236 7.76587V5.2606H43.2696V7.76587L45.8011 8.05177C46.9328 8.17776 47.0569 9.10815 47.0569 9.69934V19.2843C47.0569 19.8755 46.9377 20.8059 45.8011 20.927L43.2696 21.2178V23.7182H58.4236V21.2178L55.8921 20.927C54.7604 20.801 54.6363 19.8755 54.6363 19.2843V16.3623H66.3009V19.2843C66.3009 19.8755 66.1768 20.8059 65.0401 20.927L62.5087 21.2178V23.7182H77.6676V21.2178L75.1362 20.927C74.0045 20.801 73.8804 19.8755 73.8804 19.2843V9.69934C73.8804 9.10815 74.0045 8.17776 75.1362 8.05177L77.6676 7.76587V5.2606H62.5087V7.76587Z" fill="black"/>
<path d="M163.593 5.26556H144.88V7.77082L147.114 7.99857C147.908 8.09549 148.434 8.425 148.434 9.50561V19.2892C148.434 19.8804 148.31 20.8108 147.178 20.932L144.642 21.2227V23.7231H163.593C170.368 23.7231 175.947 21.0531 175.947 14.4919C175.947 7.93074 170.373 5.26071 163.593 5.26071M162.213 20.1809H155.865V8.79813H162.213C165.961 8.79813 167.231 10.5329 167.231 14.4919C167.231 18.4509 165.961 20.1857 162.213 20.1857V20.1809Z" fill="black"/>
<path d="M207.805 20.961C206.608 20.8254 206.226 20.0694 205.859 19.5121L197.133 6.49155C196.502 5.55631 196.051 5.26556 195.123 5.26556H180.753V7.77083L184.183 8.1488C184.649 8.20211 185.324 8.84175 184.783 9.7043L178.336 19.9434C178.072 20.3602 177.75 20.8447 177.005 20.9417L174.439 21.2276V23.728H186.55V21.2227L184.466 21.0143C183.572 20.9223 183.101 20.3117 183.537 19.6042L184.505 18.0633H196.135L196.994 19.3425C197.748 20.4619 196.8 20.9223 195.976 21.0047L193.832 21.2179V23.7231H210.217V21.2227L207.81 20.961M186.57 14.8021L190.144 9.11796L193.951 14.8021H186.565H186.57Z" fill="black"/>
<path d="M131.345 7.76598L133.876 8.05188C135.013 8.17787 135.137 9.10826 135.137 9.69944V18.9355L125.125 6.04573C124.674 5.45454 124.281 5.26071 123.209 5.26071H110.21V7.76598L112.741 8.05188C113.878 8.17787 114.002 9.10826 114.002 9.69944V19.2844C114.002 19.8756 113.878 20.806 112.741 20.9271L110.21 21.2179V23.7183H122.316V21.2179L119.784 20.9271C118.653 20.8011 118.524 19.8756 118.524 19.2844V10.0483L128.535 22.9381C128.987 23.5293 129.379 23.7231 130.456 23.7231H139.664V9.69944C139.664 9.10826 139.788 8.17787 140.925 8.05188L143.456 7.76598V5.26071H131.345V7.76598Z" fill="black"/>
<path d="M93.9087 4.63057C81.5939 4.63057 78.4172 9.88824 78.4172 14.4966C78.4172 19.1049 81.5939 24.3626 93.9087 24.3626C106.223 24.3626 109.4 19.1001 109.4 14.4966C109.4 9.89308 106.219 4.63057 93.9087 4.63057ZM93.9087 20.8445C89.1386 20.8445 87.1482 18.8917 87.1482 14.4966C87.1482 10.1015 89.1386 8.1486 93.9087 8.1486C98.6788 8.1486 100.669 10.1015 100.669 14.4966C100.669 18.8917 98.6788 20.8445 93.9087 20.8445Z" fill="black"/>
<path d="M25.8721 2.41605C25.058 5.95346 24.7354 7.5768 24.0752 10.1402C23.4399 12.597 22.9485 14.8794 22.1047 15.9842C21.246 17.1036 20.0894 17.3507 19.3101 17.438C18.9081 17.4816 18.6103 17.501 17.7317 17.5058C16.8531 17.5058 16.5603 17.4816 16.1533 17.438C15.369 17.3507 14.2224 17.1084 13.3637 15.9842C12.5149 14.8794 12.0235 12.597 11.3931 10.1402C10.728 7.5768 10.4103 5.95346 9.5963 2.41605C9.5963 2.41605 8.78722 2.44512 8.42488 2.46935C7.93844 2.50327 7.56121 2.54204 7.14922 2.59534C7.14922 2.59534 7.61581 9.86885 7.82428 12.9508C8.04764 16.1926 8.4348 21.6538 8.80211 25.7775C8.80211 25.7775 9.48213 25.8841 10.6138 25.9471C11.8002 26.015 12.3313 26.0247 12.3313 26.0247C12.8227 24.2075 13.4282 21.6829 14.1132 20.6071C14.6741 19.7349 15.5278 19.6379 16.0143 19.5749C16.7836 19.4732 17.4289 19.4586 17.7267 19.4683H17.7317C18.0295 19.4586 18.6748 19.4732 19.4442 19.5749C19.9306 19.6379 20.7893 19.7349 21.3502 20.6071C22.0352 21.6829 22.6407 24.2027 23.1272 26.0247C23.1272 26.0247 23.6583 26.015 24.8496 25.9471C25.9813 25.8841 26.6613 25.7775 26.6613 25.7775C27.0286 21.6538 27.4158 16.1926 27.6391 12.9508C27.8526 9.86885 28.3142 2.59534 28.3142 2.59534C27.9022 2.54204 27.52 2.49842 27.0385 2.46935C26.6811 2.44512 25.8721 2.41605 25.8721 2.41605Z" fill="black"/>
<path d="M35.2582 6.70948C34.7767 2.09146 31.6199 1.11261 28.8452 0.661953C27.4454 0.434202 24.9636 0.235525 23.3753 0.177376C21.9854 0.0901515 18.7045 0.0465393 17.7316 0.0465393C16.7587 0.0465393 13.4778 0.0901515 12.0879 0.177376C10.4996 0.240371 8.01776 0.434202 6.61802 0.661953C3.84831 1.11746 0.686468 2.09146 0.209959 6.70948C0.080904 7.96939 0.0411945 9.61211 0.0660127 11.3808C0.105722 14.3077 0.36383 16.2847 0.512739 17.6561C0.612012 18.5962 1.01407 21.4164 1.53029 22.8798C2.23512 24.886 2.87543 25.4723 3.62494 26.0684C4.99987 27.1587 7.25833 27.4979 7.7398 27.5803C10.2961 28.0309 15.4533 28.1084 17.7366 28.1036C20.0149 28.1036 25.182 28.0261 27.7284 27.5803C28.2098 27.4979 30.4733 27.1587 31.8432 26.0684C32.5927 25.4723 33.233 24.886 33.9428 22.8798C34.4541 21.4164 34.8611 18.5962 34.9604 17.6561C35.1093 16.2847 35.3674 14.3077 35.4071 11.3808C35.4319 9.61211 35.3922 7.96939 35.2632 6.70948M33.5259 14.4724C33.2479 18.1649 32.9104 20.3794 32.4289 21.9688C32.007 23.3644 31.4809 24.3045 30.7214 24.9829C29.4458 26.112 27.6887 26.3494 26.6562 26.4996C24.4325 26.8243 20.68 26.9358 17.7366 26.9358C14.7931 26.9358 11.0456 26.8243 8.81691 26.4996C7.78944 26.3494 6.03231 26.1071 4.75665 24.9829C3.99225 24.3094 3.47107 23.3693 3.04916 21.9688C2.56769 20.3746 2.23016 18.1601 1.94723 14.4724C1.77847 12.2482 1.81818 8.64295 2.06636 6.70464C2.4436 3.81656 3.91283 2.36282 7.06474 1.81525C8.53398 1.56327 10.5095 1.37913 12.3808 1.28706C13.8848 1.19014 16.3517 1.14169 17.7366 1.15138C19.1165 1.14169 21.5933 1.19014 23.0923 1.28706C24.9686 1.37913 26.9441 1.55842 28.4134 1.81525C31.5603 2.36282 33.0295 3.8214 33.4068 6.70464C33.6599 8.64295 33.6947 12.2482 33.5259 14.4724Z" fill="black"/>
</svg>
